<?xml version="1.0" encoding="utf-8"?>
<!-- Generator: Adobe Illustrator 27.0.0, SVG Export Plug-In . SVG Version: 6.00 Build 0)  -->
<svg version="1.1" id="Capa_1" xmlns="http://www.w3.org/2000/svg" xmlns:xlink="http://www.w3.org/1999/xlink" x="0px" y="0px"
	 viewBox="0 0 491.5 491.5" style="enable-background:new 0 0 491.5 491.5;" xml:space="preserve">
<style type="text/css">
	.st0{fill:#FFFFFF;}
</style>
<circle cx="245.8" cy="245.8" r="238"/>
<path class="st0" d="M406,151.3L252.4,62.7c-4-2.2-9-2.2-13,0l-153,88.6c-0.9,0.6-1.6,1.6-1.6,2.8v19c0,1.2,0.6,2.2,1.6,2.8
	l261.4,151.9l-31,18.1L89.4,213.9c-0.9-0.6-2.2-0.6-3.4,0c-0.9,0.6-1.6,1.6-1.6,2.8v38.7c0,1.2,0.6,2.2,1.6,2.8l190.6,110.4
	l-31,18.1L89.1,296c-1.6-0.9-3.7-0.3-4.7,1.2c-0.3,0.6-0.3,0.9-0.3,1.6v38.7c0,1.2,0.6,2.2,1.9,2.8l153,88.6c4,2.2,9,2.2,13,0
	l153.3-88.6c0.9-0.6,1.6-1.6,1.6-2.8v-19.3c0-1.2-0.6-2.2-1.6-2.8L143.7,163.4l31.7-18.4L402,276.6c1.6,0.9,3.7,0.3,4.7-1.2
	c0.3-0.6,0.3-0.9,0.3-1.6v-38.7c0-1.2-0.6-2.2-1.6-2.8L215.8,122.3l30.1-17.5l156.4,90.8c1.6,0.9,3.7,0.3,4.7-1.2
	c0.3-0.6,0.3-0.9,0.3-1.6v-38.7C407.6,152.8,407,151.9,406,151.3z"/>
</svg>
